<svg width="34" height="34" viewBox="0 0 34 34" fill="none" xmlns="http://www.w3.org/2000/svg">
<mask id="mask0_26869_153565" style="mask-type:luminance" maskUnits="userSpaceOnUse" x="1" y="1" width="32" height="32">
<path d="M25 1H9C4.58172 1 1 4.58172 1 9V25C1 29.4183 4.58172 33 9 33H25C29.4183 33 33 29.4183 33 25V9C33 4.58172 29.4183 1 25 1Z" fill="white"/>
</mask>
<g mask="url(#mask0_26869_153565)">
<path d="M25 1H9C4.58172 1 1 4.58172 1 9V25C1 29.4183 4.58172 33 9 33H25C29.4183 33 33 29.4183 33 25V9C33 4.58172 29.4183 1 25 1Z" fill="#178D72"/>
<path d="M1 1H33V33H1V1Z" fill="url(#paint0_linear_26869_153565)"/>
<path d="M14.625 7.5C14.625 11.435 11.435 14.625 7.5 14.625V19.375H14.625V26.5H19.375C19.375 22.565 22.565 19.375 26.5 19.375V14.625H19.375V7.5H14.625Z" fill="url(#paint1_linear_26869_153565)"/>
</g>
<path d="M25 1.66663H9.00002C4.94993 1.66663 1.66669 4.94987 1.66669 8.99996V25C1.66669 29.05 4.94993 32.3333 9.00002 32.3333H25C29.0501 32.3333 32.3334 29.05 32.3334 25V8.99996C32.3334 4.94987 29.0501 1.66663 25 1.66663Z" stroke="url(#paint2_linear_26869_153565)" stroke-width="2"/>
<defs>
<linearGradient id="paint0_linear_26869_153565" x1="17" y1="1" x2="18.3333" y2="33" gradientUnits="userSpaceOnUse">
<stop stop-color="white" stop-opacity="0"/>
<stop offset="1" stop-color="white" stop-opacity="0.12"/>
</linearGradient>
<linearGradient id="paint1_linear_26869_153565" x1="17" y1="7.5" x2="17" y2="26.5" gradientUnits="userSpaceOnUse">
<stop stop-color="white" stop-opacity="0.8"/>
<stop offset="1" stop-color="white" stop-opacity="0.5"/>
</linearGradient>
<linearGradient id="paint2_linear_26869_153565" x1="17" y1="0.999959" x2="17" y2="33" gradientUnits="userSpaceOnUse">
<stop stop-color="white" stop-opacity="0.12"/>
<stop offset="1" stop-color="white" stop-opacity="0"/>
</linearGradient>
</defs>
</svg>
